<?xml version="1.0"?>
<svg id="katman_1" xmlns="http://www.w3.org/2000/svg" version="1.1" viewBox="0 0 1736.9 416">
  
  <path d="M194.9,101.2c39.7,0,61,13.7,61,52.8v5.2c0,27.5-11.9,42.4-33.3,48.5,22.9,5.8,36,20.4,36,49.1v5.2c0,39-21.4,52.8-61,52.8H5.2c-3.4,0-5.2-1.8-5.2-5.2V106.4c0-3.4,1.8-5.2,5.2-5.2h189.7ZM23.2,197.9h166.9c29.9,0,43-10.1,43-34.5v-7.3c0-24.7-11.3-34.8-40.6-34.8H23.2v76.6ZM23.2,218v76.6h172.1c29.3,0,40.6-10.1,40.6-34.8v-7.3c0-24.4-13.1-34.5-43-34.5H23.2Z" fill="#fff"></path>
  <path d="M800.8,101.2h138.5c39.4,0,61.3,22.3,61.3,61.6v146.7c0,3.4-1.8,5.2-5.2,5.2h-12.5c-3.4,0-5.2-1.8-5.2-5.2v-69.9h-215.4v69.9c0,3.4-1.8,5.2-5.2,5.2h-12.5c-3.7,0-5.5-1.8-5.5-5.2v-146.7c0-39.4,22.3-61.6,61.6-61.6ZM977.7,164.4c0-27.8-14.9-43-43-43h-129.6c-28.1,0-42.7,15.3-42.7,43v55.2h215.4v-55.2Z" fill="#fff"></path>
  <path d="M1484,309.6v-8.5c0-3.4,1.2-5.5,4-7.6l214.5-172.1h-209.3c-3.7,0-5.5-1.8-5.5-5.2v-9.8c0-3.4,1.8-5.2,5.5-5.2h238.6c3.4,0,5.2,1.8,5.2,5.2v8.5c0,3.4-1.2,5.5-4,7.6l-214.1,172.1h212.9c3.4,0,5.2,1.8,5.2,5.2v9.8c0,3.4-1.8,5.2-5.2,5.2h-242.2c-3.7,0-5.5-1.8-5.5-5.2Z" fill="#fff"></path>
  <path d="M502.7,0h-6.2c-1.6,0-2.5,1.8-2.5,5.2v405.6c0,3.4.9,5.2,2.5,5.2h6.2c1.6,0,2.5-1.8,2.5-5.2V5.2c0-3.4-.9-5.2-2.5-5.2Z" fill="#fff"></path>
  <path d="M1243.3,0h-6.2c-1.6,0-2.5,1.8-2.5,5.2v405.6c0,3.4.9,5.2,2.5,5.2h6.2c1.6,0,2.5-1.8,2.5-5.2V5.2c0-3.4-.9-5.2-2.5-5.2Z" fill="#fff"></path>
</svg>